<?xml version="1.0" encoding="utf-8"?>
<!-- Generator: Adobe Illustrator 24.3.0, SVG Export Plug-In . SVG Version: 6.00 Build 0)  -->
<svg version="1.1" id="Слой_2_1_" xmlns="http://www.w3.org/2000/svg" xmlns:xlink="http://www.w3.org/1999/xlink" x="0px"
	 y="0px" viewBox="0 0 1024 1024" style="enable-background:new 0 0 1024 1024;" xml:space="preserve">
<style type="text/css">
	.st0{fill:#FFFFFF;}
</style>
<g>
	<path class="st0" d="M483,493.9L271.7,282.6c-10-10-26.1-10-36.1,0L24.3,493.9c-10,10-10,26.1,0,36.1l211.3,211.3
		c10,10,26.1,10,36.1,0L483,530.1C493,520,493,504,483,493.9z"/>
</g>
<g>
	<path class="st0" d="M348.9,256l-38.7-38.7c-6.5-6.5-6.5-17.5,0-24L492.3,11.2c6.5-6.5,17.5-6.5,24,0l38.7,38.7
		c6.5,6.5,6.5,17.5,0,24L372.9,256C366.2,262.6,355.4,262.6,348.9,256z"/>
</g>
<g>
	<path class="st0" d="M330,826.5l38.7-38.7c6.5-6.5,17.5-6.5,24,0l162.3,162.3c6.5,6.5,6.5,17.5,0,24l-38.7,38.7
		c-6.5,6.5-17.5,6.5-24,0L330,850.5C323.2,844,323.2,833.3,330,826.5z"/>
</g>
<g>
	<path class="st0" d="M381.1,262.6L507,136.6c6.5-6.5,17.5-6.5,24,0l225.8,225.8c6.5,6.5,6.5,17.5,0,24L630.9,512.3
		c-6.5,6.5-17.5,6.5-24,0L381.1,286.6C374.5,279.8,374.5,269.1,381.1,262.6z"/>
</g>
<g>
	<path class="st0" d="M630.2,550.4l108,108c6.5,6.5,6.5,17.5,0,24L531.3,889.2c-6.5,6.5-17.5,6.5-24,0l-108-108
		c-6.5-6.5-6.5-17.5,0-24l206.9-206.9C612.7,543.8,623.4,543.8,630.2,550.4z"/>
</g>
<g>
	<path class="st0" d="M989.1,518.6c7.9,0,11.9,9.6,6.3,15.2L585.8,943.6c-6.8,6.8-17.5,6.8-24.3,0.2l-23.8-24
		c-6.5-6.5-6.5-17.5,0.2-24.3l373.6-373.6c2.1-2.1,4.9-3.3,7.7-3.3L989.1,518.6z"/>
</g>
<g>
	<path class="st0" d="M989.1,505.4c7.9,0,11.9-9.6,6.3-15.2L585.8,80.7c-6.8-6.8-17.5-6.8-24.3-0.2l-23.8,23.8
		c-6.5,6.5-6.5,17.5,0.2,24.3l373.6,373.6c2.1,2.1,4.9,3.3,7.7,3.3L989.1,505.4z"/>
</g>
<g>
	<path class="st0" d="M788.5,392l108,108c6.5,6.5,6.5,17.5,0,24L768.7,651.8c-6.5,6.5-17.5,6.5-24,0l-108-108
		c-6.5-6.5-6.5-17.5,0-24L764.5,392C771,385.5,781.7,385.5,788.5,392z"/>
</g>
</svg>
